<?xml version="1.0" encoding="utf-8"?>
<svg version="1.1" class="icon" xmlns="http://www.w3.org/2000/svg" xmlns:xlink="http://www.w3.org/1999/xlink"
	 viewBox="0 0 400 400" style="enable-background:new 0 0 400 400;" xml:space="preserve">
<g>
	<path d="M0,357.14h400v28.57H0V357.14z M42.86,14.29h200c4.16,0,7.59,1.34,10.27,4.02c2.68,2.68,4.02,6.1,4.02,10.27v342.86
		c0,4.17-1.34,7.59-4.02,10.27c-2.68,2.68-6.1,4.02-10.27,4.02h-200c-4.17,0-7.59-1.34-10.27-4.02c-2.68-2.68-4.02-6.09-4.02-10.27
		V28.57c0-4.16,1.34-7.59,4.02-10.27C35.27,15.62,38.69,14.29,42.86,14.29z M57.14,42.86v314.29h171.43V42.86H57.14z M85.71,100H200
		v28.57H85.71V100z M85.71,185.71H200v28.57H85.71V185.71z M85.71,271.43H200V300H85.71V271.43z M242.86,128.57h114.29
		c4.16,0,7.59,1.34,10.27,4.02c2.68,2.68,4.02,6.1,4.02,10.27v228.57c0,4.17-1.34,7.59-4.02,10.27c-2.68,2.68-6.1,4.02-10.27,4.02
		H242.86c-4.17,0-7.59-1.34-10.27-4.02c-2.68-2.68-4.02-6.09-4.02-10.27V142.86c0-4.16,1.34-7.59,4.02-10.27
		S238.69,128.57,242.86,128.57z M257.14,157.14v200h85.71v-200H257.14z M257.14,214.29h57.14v28.57h-57.14V214.29z M257.14,271.43
		h57.14V300h-57.14V271.43z"/>
</g>
</svg>
