<svg version="1.1" class="icon" xmlns="http://www.w3.org/2000/svg" xmlns:xlink="http://www.w3.org/1999/xlink"
	 viewBox="0 0 400 400" style="enable-background:new 0 0 400 400;" xml:space="preserve">
<g>
	<path d="M293.25,101.47h59.34c3.93,0,7.17,1.21,9.74,3.62c2.57,2.42,4.15,5.59,4.76,9.51l8.61,88.34H346.7l-7.25-72.48h-46.21
		v43.49c0,4.23-1.36,7.7-4.08,10.42c-2.72,2.72-6.19,4.08-10.42,4.08s-7.7-1.36-10.42-4.08c-2.72-2.72-4.08-6.19-4.08-10.42v-43.49
		H148.29v43.49c0,4.23-1.36,7.7-4.08,10.42s-6.19,4.08-10.42,4.08s-7.7-1.36-10.42-4.08c-2.72-2.72-4.08-6.19-4.08-10.42v-43.49
		H73.09L49.99,362.4h156.29v28.99H33.68c-4.23,0-7.78-1.59-10.65-4.76c-2.87-3.17-4-6.87-3.4-11.1l25.82-260.93
		c0.6-3.93,2.19-7.1,4.76-9.51c2.57-2.42,5.81-3.62,9.74-3.62h59.34v-9.97c0.6-25.97,9.06-47.57,25.37-64.78S181.51,0.6,206.27,0
		c24.76,0.6,45.3,9.51,61.61,26.73s24.76,38.81,25.37,64.78V101.47z M264.26,101.47v-9.97c-0.3-17.82-5.96-32.62-16.99-44.39
		c-11.02-11.78-24.69-17.82-41-18.12c-16.31,0.3-29.97,6.34-41,18.12c-11.02,11.78-16.69,26.58-16.99,44.39v9.97H264.26z
		 M355.31,317.1c4.23-3.93,9.06-5.21,14.5-3.85s8.83,4.76,10.19,10.19s0.08,10.12-3.85,14.04l-57.98,57.98
		c-3.02,3.02-6.49,4.53-10.42,4.53c-3.93,0-7.4-1.51-10.42-4.53l-57.98-57.98c-3.62-3.93-4.76-8.53-3.4-13.82
		c1.36-5.29,4.68-8.68,9.97-10.19c5.29-1.51,10.04-0.3,14.27,3.62l33.07,33.52V246.43c0-4.23,1.36-7.7,4.08-10.42
		c2.72-2.72,6.19-4.08,10.42-4.08c4.23,0,7.7,1.36,10.42,4.08c2.72,2.72,4.08,6.19,4.08,10.42v104.19L355.31,317.1z"/>
</g>
</svg>
