<svg version="1.1" class="icon" xmlns="http://www.w3.org/2000/svg" xmlns:xlink="http://www.w3.org/1999/xlink"
	 viewBox="0 0 400 400" style="enable-background:new 0 0 400 400;" xml:space="preserve">
<g>
	<path d="M292.1,100h58.48c3.87,0,7.07,1.19,9.6,3.57s4.09,5.51,4.69,9.38l8.48,87.05h-28.57l-7.14-71.43H292.1v42.86
		c0,4.17-1.34,7.59-4.02,10.27c-2.68,2.68-6.1,4.02-10.27,4.02c-4.17,0-7.59-1.34-10.27-4.02c-2.68-2.68-4.02-6.1-4.02-10.27v-42.86
		H149.25v42.86c0,4.17-1.34,7.59-4.02,10.27s-6.1,4.02-10.27,4.02s-7.59-1.34-10.27-4.02c-2.68-2.68-4.02-6.1-4.02-10.27v-42.86
		H75.14L52.37,357.14h154.02v28.57H36.3c-4.17,0-7.66-1.56-10.49-4.69s-3.94-6.77-3.35-10.94l25.45-257.14
		c0.6-3.87,2.16-6.99,4.69-9.38s5.73-3.57,9.6-3.57h58.48v-9.82c0.6-25.6,8.93-46.88,25-63.84S181.98,0.6,206.39,0
		c24.4,0.6,44.64,9.38,60.71,26.34c16.07,16.96,24.4,38.24,25,63.84V100z M263.53,100v-9.82c-0.3-17.56-5.88-32.14-16.74-43.75
		c-10.86-11.61-24.33-17.56-40.4-17.86c-16.07,0.3-29.54,6.25-40.4,17.86c-10.86,11.61-16.44,26.19-16.74,43.75V100H263.53z
		 M353.26,316.07l-32.59-33.04v102.68c0,4.17-1.34,7.59-4.02,10.27c-2.68,2.68-6.1,4.02-10.27,4.02s-7.59-1.34-10.27-4.02
		c-2.68-2.68-4.02-6.1-4.02-10.27V283.04l-32.59,33.04c-4.17,3.87-8.85,5.06-14.06,3.57c-5.21-1.49-8.48-4.84-9.82-10.04
		c-1.34-5.21-0.22-9.75,3.35-13.62l57.14-57.14c2.98-2.98,6.4-4.46,10.27-4.46s7.29,1.49,10.27,4.46l57.14,57.14
		c3.57,3.87,4.69,8.41,3.35,13.62c-1.34,5.21-4.61,8.56-9.82,10.04S357.43,319.94,353.26,316.07z"/>
</g>
</svg>
