<?xml version="1.0" encoding="utf-8"?>
<!-- Generator: Adobe Illustrator 23.1.0, SVG Export Plug-In . SVG Version: 6.00 Build 0)  -->
<svg version="1.1" id="Calque_1" xmlns="http://www.w3.org/2000/svg" xmlns:xlink="http://www.w3.org/1999/xlink" x="0px" y="0px"
	 viewBox="0 0 200 200" style="enable-background:new 0 0 200 200;" xml:space="preserve">
<style type="text/css">
	.st0{fill:url(#SVGID_1_);}
	.st1{fill:url(#SVGID_2_);}
	.st2{opacity:0.2;enable-background:new    ;}
	.st3{fill:#FFFFFF;}
</style>
<g>
	<g>
		
			<linearGradient id="SVGID_1_" gradientUnits="userSpaceOnUse" x1="10.31" y1="100.29" x2="190.32" y2="100.29" gradientTransform="matrix(1 0 0 -1 0 200)">
			<stop  offset="0" style="stop-color:#FF987A"/>
			<stop  offset="1" style="stop-color:#F68E6F"/>
		</linearGradient>
		<path class="st0" d="M190.32,59.69v48.47L147.76,65.6l0.11-0.07c-2.43-2.94-5.17-5.62-8.17-7.99
			c-9.14-7.22-20.68-11.53-33.23-11.53c-29.65,0-53.71,24.04-53.71,53.69c0,14.38,5.65,27.42,14.84,37.06
			c0.59,0.62,1.2,1.23,1.82,1.82l52.03,52.03l-11.16,6.4c-6.16,3.59-13.79,3.59-19.95,0L20.28,157c-6.15-3.54-9.97-10.15-9.97-17.28
			V59.69c0-7.12,3.82-13.73,9.97-17.27L90.34,2.41c6.16-3.59,13.79-3.59,19.95,0l70.05,40.01C186.5,45.96,190.32,52.57,190.32,59.69
			z"/>
	</g>
	<g>
		
			<linearGradient id="SVGID_2_" gradientUnits="userSpaceOnUse" x1="52.76" y1="81.69" x2="190.32" y2="81.69" gradientTransform="matrix(1 0 0 -1 0 200)">
			<stop  offset="0" style="stop-color:#FF987A"/>
			<stop  offset="1" style="stop-color:#F68E6F"/>
		</linearGradient>
		<path class="st1" d="M190.32,108.16v31.56c0,7.13-3.82,13.74-9.98,17.28l-58.02,33.11l-0.87,0.5l-52.03-52.03l-1.82-1.82
			c-9.19-9.64-14.84-22.68-14.84-37.06c0-29.65,24.06-53.69,53.71-53.69c12.55,0,24.09,4.31,33.23,11.53c3,2.37,5.74,5.05,8.17,7.99
			l-0.11,0.07L190.32,108.16z"/>
	</g>
</g>
<path class="st2" d="M190.32,108.16v31.56c0,7.13-3.82,13.74-9.98,17.28l-58.02,33.11l-0.87,0.5l-52.03-52.03l-1.82-1.82
	c-9.19-9.64-14.84-22.68-14.84-37.06c0-29.65,24.06-53.69,53.71-53.69c12.55,0,24.09,4.31,33.23,11.53L190.32,108.16z"/>
<g>
	<g>
		<path class="st3" d="M73.1,99.7c0,9.31,3.8,17.71,9.94,23.75c4.27,4.22,9.67,7.29,15.71,8.72c2.48,0.59,5.06,0.9,7.72,0.9
			c8.77,0,16.74-3.4,22.7-8.91l1.74,0.99l16.36,9.44c-9.86,11.52-24.46,18.82-40.8,18.82c-8.13,0-15.83-1.8-22.73-5.03
			c-2.5-1.17-4.89-2.53-7.16-4.05c-2.55-1.71-4.95-3.64-7.16-5.75c-0.62-0.59-1.23-1.2-1.82-1.82
			c-9.19-9.64-14.84-22.68-14.84-37.06c0-29.65,24.06-53.69,53.71-53.69c8.63,0,16.78,2.04,24,5.66c2.49,1.24,4.86,2.68,7.11,4.28
			c0.72,0.51,1.43,1.04,2.12,1.59c3,2.37,5.74,5.05,8.17,7.99l-0.11,0.07l-16.01,9.21l-0.4,0.23l-1.51,0.87
			c-3.9-3.84-8.74-6.73-14.15-8.29c-2.93-0.85-6.02-1.3-9.22-1.3C88.05,66.32,73.1,81.27,73.1,99.7z"/>
	</g>
</g>
</svg>
